<svg width="128" height="128" viewBox="0 0 128 128" fill="none" xmlns="http://www.w3.org/2000/svg">
<rect width="128" height="128" fill="black"/>
<path d="M63.5996 86.576C61.5516 86.576 59.5036 86.192 57.4556 85.424C55.4396 84.656 53.6316 83.536 52.0316 82.064L56.0636 77.216C57.1836 78.176 58.4316 78.96 59.8076 79.568C61.1836 80.176 62.5116 80.48 63.7916 80.48C65.2636 80.48 66.3516 80.208 67.0556 79.664C67.7916 79.12 68.1596 78.384 68.1596 77.456C68.1596 76.464 67.7436 75.744 66.9116 75.296C66.1116 74.816 65.0236 74.288 63.6476 73.712L59.5676 71.984C58.5116 71.536 57.5036 70.944 56.5436 70.208C55.5836 69.44 54.7996 68.496 54.1916 67.376C53.5836 66.256 53.2796 64.944 53.2796 63.44C53.2796 61.712 53.7436 60.144 54.6716 58.736C55.6316 57.328 56.9436 56.208 58.6076 55.376C60.3036 54.544 62.2396 54.128 64.4156 54.128C66.2076 54.128 67.9996 54.48 69.7916 55.184C71.5836 55.888 73.1516 56.912 74.4956 58.256L70.8956 62.72C69.8716 61.92 68.8476 61.312 67.8236 60.896C66.7996 60.448 65.6636 60.224 64.4156 60.224C63.1996 60.224 62.2236 60.48 61.4876 60.992C60.7836 61.472 60.4316 62.16 60.4316 63.056C60.4316 64.016 60.8796 64.736 61.7756 65.216C62.7036 65.696 63.8396 66.208 65.1836 66.752L69.2156 68.384C71.1036 69.152 72.6076 70.208 73.7276 71.552C74.8476 72.896 75.4076 74.672 75.4076 76.88C75.4076 78.608 74.9436 80.208 74.0156 81.68C73.0876 83.152 71.7436 84.336 69.9836 85.232C68.2236 86.128 66.0956 86.576 63.5996 86.576Z" fill="#F2F2F2"/>
<path d="M77.6474 93.68L87.2954 51.92H91.9034L82.2554 93.68H77.6474ZM94.9211 81.008V75.2L103.369 72.416L109.849 70.16V69.968L103.369 67.712L94.9211 64.928V59.12L117.001 67.616V72.512L94.9211 81.008Z" fill="#00B0FF"/>
<path d="M30.1104 65.008L8.03044 56.512V51.616L30.1104 43.12V48.928L21.6624 51.712L15.1824 53.968V54.16L21.6624 56.416L30.1104 59.2V65.008Z" fill="#00B0FF"/>
<path d="M35.4538 70V38.704H42.5098V64.048H54.8938V70H35.4538Z" fill="#F2F2F2"/>
</svg>
